# Blender v2.92.0 OBJ File: 'ironSword.blend'
# www.blender.org
mtllib ironSword.mtl
o Hilt_Cube.001
v -0.044537 2.395665 -0.062904
v -0.044537 2.095601 -0.062904
v -0.090706 2.395665 -0.062904
v -0.090706 2.095601 -0.062904
v -0.067622 2.095601 -0.062904
v -0.067622 2.395665 -0.062904
v -0.078810 2.095601 -0.062904
v -0.078810 2.395665 -0.062904
v -0.056433 2.395665 -0.062904
v -0.056433 2.095601 -0.062904
v -0.050839 2.395665 -0.062904
v -0.050839 2.095601 -0.062904
v -0.084404 2.095601 -0.062904
v -0.084404 2.395665 -0.062904
v -0.073216 2.395665 -0.062904
v -0.073216 2.095601 -0.062904
v -0.062028 2.095601 -0.062904
v -0.062027 2.395665 -0.062904
v -0.044537 2.395665 -0.053145
v -0.044537 2.095601 -0.053145
v -0.044537 2.395665 -0.072663
v -0.044537 2.095601 -0.072663
v -0.090706 2.395665 -0.053145
v -0.090706 2.095601 -0.053145
v -0.090706 2.395665 -0.072663
v -0.090706 2.095601 -0.072663
v -0.067622 2.395665 -0.081154
v -0.067622 2.095601 -0.081154
v -0.067622 2.395665 -0.044653
v -0.067622 2.095601 -0.044654
v -0.078810 2.095601 -0.079887
v -0.078810 2.395665 -0.045921
v -0.078810 2.395665 -0.079887
v -0.078810 2.095601 -0.045921
v -0.056433 2.395665 -0.079887
v -0.056433 2.095601 -0.045921
v -0.056433 2.095601 -0.079887
v -0.056433 2.395665 -0.045921
v -0.050839 2.395665 -0.078143
v -0.050839 2.095601 -0.047665
v -0.050839 2.095601 -0.078143
v -0.050839 2.395665 -0.047665
v -0.084404 2.095601 -0.078143
v -0.084404 2.395665 -0.047665
v -0.084404 2.395665 -0.078143
v -0.084404 2.095601 -0.047665
v -0.073216 2.395665 -0.081154
v -0.073216 2.095601 -0.044654
v -0.073216 2.095601 -0.081154
v -0.073216 2.395665 -0.044653
v -0.062028 2.095601 -0.081154
v -0.062027 2.395665 -0.044653
v -0.062027 2.395665 -0.081154
v -0.062028 2.095601 -0.044654
vt 0.375000 0.125000
vt 0.625000 0.125000
vt 0.625000 0.250000
vt 0.375000 0.250000
vt 0.375000 0.625000
vt 0.625000 0.625000
vt 0.625000 0.750000
vt 0.375000 0.750000
vt 0.343750 0.625000
vt 0.343750 0.750000
vt 0.843750 0.625000
vt 0.875000 0.625000
vt 0.875000 0.750000
vt 0.843750 0.750000
vt 0.718750 0.625000
vt 0.750000 0.625000
vt 0.750000 0.750000
vt 0.718750 0.750000
vt 0.218750 0.625000
vt 0.250000 0.625000
vt 0.250000 0.750000
vt 0.218750 0.750000
vt 0.218750 0.500000
vt 0.250000 0.500000
vt 0.718750 0.500000
vt 0.750000 0.500000
vt 0.843750 0.500000
vt 0.875000 0.500000
vt 0.343750 0.500000
vt 0.375000 0.500000
vt 0.625000 0.500000
vt 0.375000 0.000000
vt 0.625000 0.000000
vt 0.281250 0.500000
vt 0.312500 0.500000
vt 0.312500 0.625000
vt 0.281250 0.625000
vt 0.656250 0.500000
vt 0.687500 0.500000
vt 0.687500 0.625000
vt 0.656250 0.625000
vt 0.687500 0.750000
vt 0.656250 0.750000
vt 0.312500 0.750000
vt 0.281250 0.750000
vt 0.781250 0.500000
vt 0.812500 0.500000
vt 0.812500 0.625000
vt 0.781250 0.625000
vt 0.156250 0.500000
vt 0.187500 0.500000
vt 0.187500 0.625000
vt 0.156250 0.625000
vt 0.187500 0.750000
vt 0.156250 0.750000
vt 0.812500 0.750000
vt 0.781250 0.750000
vt 0.125000 0.625000
vt 0.125000 0.750000
vt 0.125000 0.500000
vt 0.375000 0.468750
vt 0.625000 0.468750
vt 0.375000 0.968750
vt 0.625000 0.968750
vt 0.625000 1.000000
vt 0.375000 1.000000
vt 0.375000 0.843750
vt 0.625000 0.843750
vt 0.625000 0.875000
vt 0.375000 0.875000
vt 0.375000 0.343750
vt 0.625000 0.343750
vt 0.625000 0.375000
vt 0.375000 0.375000
vt 0.375000 0.781250
vt 0.625000 0.781250
vt 0.625000 0.812500
vt 0.375000 0.812500
vt 0.375000 0.406250
vt 0.625000 0.406250
vt 0.625000 0.437500
vt 0.375000 0.437500
vt 0.375000 0.281250
vt 0.625000 0.281250
vt 0.625000 0.312500
vt 0.375000 0.312500
vt 0.375000 0.906250
vt 0.625000 0.906250
vt 0.625000 0.937500
vt 0.375000 0.937500
vn 1.0000 -0.0000 0.0000
vn -1.0000 0.0000 0.0000
vn 0.0000 1.0000 0.0000
vn 0.0000 -1.0000 0.0000
vn -0.6562 0.0000 -0.7546
vn 0.6562 -0.0000 0.7546
vn 0.0000 -0.0000 1.0000
vn 0.0000 0.0000 -1.0000
vn -0.2977 -0.0000 0.9547
vn -0.2209 0.0000 -0.9753
vn 0.2977 0.0000 -0.9547
vn 0.2209 -0.0000 0.9753
vn 0.6562 0.0000 -0.7546
vn 0.2977 -0.0000 0.9547
vn -0.6562 -0.0000 0.7546
vn -0.2977 0.0000 -0.9547
vn -0.2209 -0.0000 0.9753
vn 0.2209 0.0000 -0.9753
usemtl None
s off
f 1/1/1 2/2/1 22/3/1 21/4/1
f 3/5/2 4/6/2 24/7/2 23/8/2
f 14/9/3 3/5/3 23/8/3 44/10/3
f 12/11/4 2/12/4 20/13/4 40/14/4
f 16/15/4 5/16/4 30/17/4 48/18/4
f 18/19/3 6/20/3 29/21/3 52/22/3
f 53/23/3 27/24/3 6/20/3 18/19/3
f 49/25/4 28/26/4 5/16/4 16/15/4
f 41/27/4 22/28/4 2/12/4 12/11/4
f 45/29/3 25/30/3 3/5/3 14/9/3
f 25/30/2 26/31/2 4/6/2 3/5/2
f 19/32/1 20/33/1 2/2/1 1/1/1
f 47/34/3 33/35/3 8/36/3 15/37/3
f 43/38/4 31/39/4 7/40/4 13/41/4
f 13/41/4 7/40/4 34/42/4 46/43/4
f 15/37/3 8/36/3 32/44/3 50/45/3
f 51/46/4 37/47/4 10/48/4 17/49/4
f 39/50/3 35/51/3 9/52/3 11/53/3
f 11/53/3 9/52/3 38/54/3 42/55/3
f 17/49/4 10/48/4 36/56/4 54/57/4
f 1/58/3 11/53/3 42/55/3 19/59/3
f 21/60/3 39/50/3 11/53/3 1/58/3
f 37/47/4 41/27/4 12/11/4 10/48/4
f 10/48/4 12/11/4 40/14/4 36/56/4
f 4/6/4 13/41/4 46/43/4 24/7/4
f 26/31/4 43/38/4 13/41/4 4/6/4
f 33/35/3 45/29/3 14/9/3 8/36/3
f 8/36/3 14/9/3 44/10/3 32/44/3
f 6/20/3 15/37/3 50/45/3 29/21/3
f 27/24/3 47/34/3 15/37/3 6/20/3
f 31/39/4 49/25/4 16/15/4 7/40/4
f 7/40/4 16/15/4 48/18/4 34/42/4
f 5/16/4 17/49/4 54/57/4 30/17/4
f 28/26/4 51/46/4 17/49/4 5/16/4
f 35/51/3 53/23/3 18/19/3 9/52/3
f 9/52/3 18/19/3 52/22/3 38/54/3
f 45/61/5 43/62/5 26/31/5 25/30/5
f 42/63/6 40/64/6 20/65/6 19/66/6
f 50/67/7 48/68/7 30/69/7 29/70/7
f 53/71/8 51/72/8 28/73/8 27/74/8
f 44/75/9 46/76/9 34/77/9 32/78/9
f 47/79/10 49/80/10 31/81/10 33/82/10
f 39/83/11 41/84/11 37/85/11 35/86/11
f 52/87/12 54/88/12 36/89/12 38/90/12
f 21/4/13 22/3/13 41/84/13 39/83/13
f 38/90/14 36/89/14 40/64/14 42/63/14
f 23/8/15 24/7/15 46/76/15 44/75/15
f 33/82/16 31/81/16 43/62/16 45/61/16
f 27/74/8 28/73/8 49/80/8 47/79/8
f 32/78/17 34/77/17 48/68/17 50/67/17
f 29/70/7 30/69/7 54/88/7 52/87/7
f 35/86/18 37/85/18 51/72/18 53/71/18
o Crossguard_Cube.002
v -0.000868 2.451872 0.000353
v -0.000868 2.385161 0.000353
v -0.000868 2.451872 -0.130554
v -0.000868 2.385161 -0.130554
v -0.134208 2.451872 0.000353
v -0.134208 2.385161 0.000353
v -0.134208 2.451872 -0.130554
v -0.134208 2.385161 -0.130554
v 0.032462 2.451872 -0.065100
v 0.032462 2.385161 -0.065100
v -0.167538 2.451872 -0.065100
v -0.167538 2.385161 -0.065100
v 0.018563 2.451872 -0.032374
v -0.153639 2.385161 -0.032374
v 0.018563 2.385161 -0.032374
v -0.153639 2.451872 -0.032374
v 0.018563 2.385161 -0.097827
v -0.153639 2.451872 -0.097827
v 0.018563 2.451872 -0.097827
v -0.153639 2.385161 -0.097827
v -0.067538 2.451872 -0.130554
v -0.067538 2.385161 -0.130554
v -0.067538 2.451872 0.000353
v -0.067538 2.385161 0.000353
v -0.067538 2.385161 -0.065100
v -0.067538 2.451872 -0.065100
v -0.067538 2.385161 -0.032374
v -0.067538 2.451872 -0.032374
v -0.067538 2.451872 -0.097827
v -0.067538 2.385161 -0.097827
vt 0.375000 0.187500
vt 0.625000 0.187500
vt 0.625000 0.250000
vt 0.375000 0.250000
vt 0.375000 0.375000
vt 0.625000 0.375000
vt 0.625000 0.500000
vt 0.375000 0.500000
vt 0.375000 0.687500
vt 0.625000 0.687500
vt 0.625000 0.750000
vt 0.375000 0.750000
vt 0.375000 0.875000
vt 0.625000 0.875000
vt 0.625000 1.000000
vt 0.375000 1.000000
vt 0.250000 0.687500
vt 0.250000 0.750000
vt 0.750000 0.687500
vt 0.875000 0.687500
vt 0.875000 0.750000
vt 0.750000 0.750000
vt 0.750000 0.562500
vt 0.875000 0.562500
vt 0.875000 0.625000
vt 0.750000 0.625000
vt 0.250000 0.562500
vt 0.375000 0.562500
vt 0.375000 0.625000
vt 0.250000 0.625000
vt 0.625000 0.562500
vt 0.625000 0.625000
vt 0.375000 0.062500
vt 0.625000 0.062500
vt 0.625000 0.125000
vt 0.375000 0.125000
vt 0.375000 0.000000
vt 0.625000 0.000000
vt 0.250000 0.500000
vt 0.750000 0.500000
vt 0.875000 0.500000
vt 0.125000 0.500000
vt 0.125000 0.562500
vt 0.125000 0.625000
vt 0.125000 0.687500
vt 0.125000 0.750000
vn 0.8599 0.0000 -0.5105
vn 0.0000 0.0000 -1.0000
vn -0.8599 0.0000 0.5105
vn 0.0000 -0.0000 1.0000
vn 0.0000 1.0000 0.0000
vn 0.0000 -1.0000 -0.0000
vn -0.9204 0.0000 -0.3909
vn 0.9204 -0.0000 0.3909
vn 0.8599 -0.0000 0.5105
vn -0.9204 0.0000 0.3909
vn -0.8599 0.0000 -0.5105
vn 0.9204 -0.0000 -0.3909
usemtl None
s off
f 73/91/19 71/92/19 58/93/19 57/94/19
f 75/95/20 76/96/20 62/97/20 61/98/20
f 70/99/21 68/100/21 60/101/21 59/102/21
f 77/103/22 78/104/22 56/105/22 55/106/22
f 82/107/23 70/99/23 59/102/23 77/108/23
f 81/109/24 69/110/24 56/111/24 78/112/24
f 84/113/24 71/114/24 64/115/24 79/116/24
f 83/117/23 72/118/23 65/119/23 80/120/23
f 72/118/25 74/121/25 66/122/25 65/119/25
f 67/123/26 69/124/26 64/125/26 63/126/26
f 55/127/27 56/128/27 69/124/27 67/123/27
f 79/116/24 64/115/24 69/110/24 81/109/24
f 80/120/23 65/119/23 70/99/23 82/107/23
f 65/119/28 66/122/28 68/100/28 70/99/28
f 61/98/29 62/97/29 74/121/29 72/118/29
f 75/129/23 61/98/23 72/118/23 83/117/23
f 76/130/24 58/131/24 71/114/24 84/113/24
f 63/126/30 64/125/30 71/92/30 73/91/30
f 62/97/24 76/130/24 84/113/24 74/121/24
f 57/132/23 75/129/23 83/117/23 73/133/23
f 63/134/23 80/120/23 82/107/23 67/135/23
f 66/122/24 79/116/24 81/109/24 68/100/24
f 73/133/23 83/117/23 80/120/23 63/134/23
f 74/121/24 84/113/24 79/116/24 66/122/24
f 68/100/24 81/109/24 78/112/24 60/101/24
f 67/135/23 82/107/23 77/108/23 55/136/23
f 59/102/22 60/101/22 78/104/22 77/103/22
f 57/94/20 58/93/20 76/96/20 75/95/20
o Blade_Cube.003
v -0.023186 2.627128 -0.061425
v -0.023186 2.427128 -0.061425
v -0.023186 2.627128 -0.074852
v -0.023186 2.427128 -0.074852
v -0.116980 2.627128 -0.061724
v -0.116738 2.427128 -0.059727
v -0.116980 2.627128 -0.074552
v -0.116980 2.427128 -0.076549
v -0.071339 2.627128 -0.077162
v -0.071339 2.427128 -0.081450
v -0.071339 2.627128 -0.059115
v -0.071339 2.427128 -0.054826
v -0.030494 2.627128 -0.076777
v -0.030494 2.427128 -0.059500
v -0.030494 2.427128 -0.076777
v -0.030494 2.627128 -0.059500
v -0.112185 2.427128 -0.078131
v -0.112185 2.627128 -0.059529
v -0.112185 2.627128 -0.076748
v -0.112185 2.427128 -0.058146
v -0.006986 2.627128 -0.068138
v -0.006986 2.427128 -0.068138
v -0.133180 2.627128 -0.068138
v -0.133180 2.427128 -0.068138
v -0.071481 2.427128 -0.068139
v -0.071481 2.627128 -0.068139
v -0.021481 2.627128 -0.068139
v -0.021481 2.427128 -0.068139
v -0.121481 2.427128 -0.068139
v -0.121481 2.627128 -0.068139
v -0.023186 2.627128 -0.047397
v -0.023186 2.427128 -0.047398
v -0.023186 2.627128 -0.088883
v -0.023186 2.427128 -0.088883
v -0.116980 2.627128 -0.048323
v -0.116738 2.427128 -0.042152
v -0.116980 2.627128 -0.087958
v -0.116980 2.427128 -0.094129
v -0.071339 2.627128 -0.096021
v -0.071339 2.427128 -0.109272
v -0.071339 2.627128 -0.040260
v -0.071339 2.427128 -0.027009
v -0.030494 2.627128 -0.094831
v -0.030494 2.427128 -0.041450
v -0.030494 2.427128 -0.094831
v -0.030494 2.627128 -0.041450
v -0.112185 2.427128 -0.099014
v -0.112185 2.627128 -0.041539
v -0.112185 2.627128 -0.094741
v -0.112185 2.427128 -0.037267
v -0.006986 2.627128 -0.068140
v -0.006986 2.427128 -0.068140
v -0.133180 2.627128 -0.068140
v -0.133180 2.427128 -0.068140
v -0.023186 3.478897 -0.047397
v -0.023186 3.478897 -0.088883
v -0.116980 3.478897 -0.048322
v -0.116980 3.478897 -0.087958
v -0.071339 3.478897 -0.096020
v -0.071339 3.478897 -0.040260
v -0.030494 3.478897 -0.094830
v -0.030494 3.478897 -0.041450
v -0.112184 3.478897 -0.041539
v -0.112184 3.478897 -0.094741
v -0.006986 3.478897 -0.068140
v -0.133180 3.478897 -0.068140
v -0.045904 3.536548 -0.047397
v -0.045904 3.536548 -0.088883
v -0.094759 3.536548 -0.048322
v -0.094759 3.536548 -0.087958
v -0.071091 3.536017 -0.096020
v -0.071091 3.536017 -0.040260
v -0.059245 3.536548 -0.094830
v -0.059245 3.536548 -0.041450
v -0.082937 3.536548 -0.041539
v -0.082937 3.536548 -0.094741
v -0.032178 3.536548 -0.068140
v -0.108485 3.536548 -0.068140
v -0.070713 3.578876 -0.047860
v -0.070713 3.578876 -0.088420
v -0.070709 3.573489 -0.094956
v -0.070709 3.573489 -0.041157
v -0.070713 3.588264 -0.068140
vt 0.312500 0.625000
vt 0.375000 0.625000
vt 0.375000 0.750000
vt 0.312500 0.750000
vt 0.812500 0.625000
vt 0.875000 0.625000
vt 0.875000 0.750000
vt 0.812500 0.750000
vt 0.687500 0.625000
vt 0.750000 0.625000
vt 0.750000 0.750000
vt 0.687500 0.750000
vt 0.187500 0.625000
vt 0.250000 0.625000
vt 0.250000 0.750000
vt 0.187500 0.750000
vt 0.125000 0.625000
vt 0.125000 0.750000
vt 0.625000 0.625000
vt 0.625000 0.750000
vt 0.250000 0.500000
vt 0.312500 0.500000
vt 0.625000 0.500000
vt 0.687500 0.500000
vt 0.750000 0.500000
vt 0.812500 0.500000
vt 0.125000 0.500000
vt 0.187500 0.500000
vt 0.875000 0.500000
vt 0.375000 0.500000
vt 0.375000 0.125000
vt 0.625000 0.125000
vt 0.625000 0.250000
vt 0.375000 0.250000
vt 0.375000 0.437500
vt 0.625000 0.437500
vt 0.625000 0.500000
vt 0.375000 0.500000
vt 0.375000 0.625000
vt 0.625000 0.625000
vt 0.625000 0.750000
vt 0.375000 0.750000
vt 0.375000 0.937500
vt 0.625000 0.937500
vt 0.625000 1.000000
vt 0.375000 1.000000
vt 0.375000 0.812500
vt 0.625000 0.812500
vt 0.625000 0.875000
vt 0.375000 0.875000
vt 0.375000 0.312500
vt 0.625000 0.312500
vt 0.625000 0.375000
vt 0.375000 0.375000
vt 0.375000 0.000000
vt 0.625000 0.000000
vt 0.375000 0.625000
vt 0.375000 0.750000
vt 0.312500 0.750000
vt 0.312500 0.750000
vt 0.375000 0.250000
vt 0.375000 0.312500
vt 0.000000 0.000000
vt 0.000000 0.000000
vt 0.000000 0.000000
vt 0.000000 0.000000
vt 0.375000 0.375000
vt 0.375000 0.437500
vt 0.000000 0.000000
vt 0.000000 0.000000
vt 0.000000 0.000000
vt 0.000000 0.000000
vt 0.375000 0.125000
vt 0.250000 0.750000
vt 0.187500 0.750000
vt 0.187500 0.750000
vt 0.250000 0.750000
vt 0.375000 0.812500
vt 0.375000 0.875000
vt 0.375000 0.500000
vt 0.125000 0.750000
vt 0.125000 0.625000
vt 0.125000 0.625000
vt 0.125000 0.750000
vt 0.375000 0.937500
vt 0.375000 1.000000
vt 0.375000 0.125000
vt 0.375000 0.250000
vt 0.312500 0.750000
vt 0.375000 0.750000
vt 0.375000 0.625000
vt 0.375000 0.375000
vt 0.375000 0.437500
vt 0.000000 0.000000
vt 0.000000 0.000000
vt 0.187500 0.750000
vt 0.250000 0.750000
vt 0.000000 0.000000
vt 0.000000 0.000000
vt 0.375000 0.312500
vt 0.375000 0.937500
vt 0.375000 1.000000
vt 0.125000 0.625000
vt 0.125000 0.750000
vt 0.375000 0.812500
vt 0.375000 0.875000
vt 0.375000 0.500000
vt 0.375000 0.375000
vt 0.375000 0.937500
vt 0.375000 1.000000
vt 0.125000 0.625000
vt 0.125000 0.750000
vt 0.375000 0.875000
vt 0.375000 0.250000
vt 0.375000 0.312500
vt 0.375000 0.437500
vt 0.375000 0.500000
vt 0.375000 0.625000
vt 0.375000 0.125000
vt 0.312500 0.750000
vt 0.375000 0.750000
vt 0.000000 0.000000
vt 0.000000 0.000000
vt 0.250000 0.750000
vn 0.0000 1.0000 -0.0001
vn 0.0000 -1.0000 0.0000
vn 0.0000 1.0000 0.0000
vn 0.7881 0.0000 -0.6155
vn -0.7724 0.0166 -0.6349
vn -0.8144 0.0085 0.5803
vn 0.6312 -0.0000 0.7756
vn -0.1397 0.0433 0.9892
vn 0.1878 0.0325 -0.9817
vn 0.6312 0.0000 -0.7756
vn 0.1878 0.0325 0.9817
vn -0.7803 0.0159 0.6252
vn -0.1397 0.0433 -0.9892
vn -0.8164 0.0089 -0.5774
vn 0.7881 -0.0000 0.6155
vn 0.7742 0.0000 -0.6329
vn -0.8166 -0.0000 0.5773
vn -0.6312 -0.0000 0.7756
vn 1.0000 -0.0000 0.0000
vn 0.0313 -0.0000 0.9995
vn -0.0291 -0.0000 0.9996
vn -0.7881 -0.0000 0.6155
vn 0.0291 -0.0000 0.9996
vn 0.0313 0.0000 -0.9995
vn -0.7742 0.0000 -0.6329
vn 0.8166 -0.0000 0.5773
vn -0.6312 0.0000 -0.7756
vn -0.7686 -0.3193 0.5544
vn -0.6086 0.2717 0.7455
vn 0.7590 -0.3089 -0.5731
vn 0.0484 -0.0124 0.9988
vn 0.9331 -0.3596 0.0000
vn 0.0450 0.0112 0.9989
vn 0.9304 0.3666 0.0000
vn -0.0450 -0.0112 0.9989
vn -0.4872 -0.2175 -0.8458
vn 0.7686 0.3193 0.5544
vn 0.0484 -0.0124 -0.9988
vn -0.4872 -0.2175 0.8458
vn 0.6086 -0.2717 0.7455
vn -0.7590 0.3089 -0.5731
vn -0.0987 -0.0273 0.9947
vn -0.6003 -0.2763 -0.7506
vn 0.7678 0.5190 0.3757
vn 0.1062 -0.0249 -0.9940
vn -0.5952 -0.2756 0.7549
vn 0.6531 -0.2929 0.6984
vn -0.7728 0.5061 -0.3830
vn -0.7678 -0.5190 0.3757
vn -0.6575 0.2935 0.6939
vn 0.7728 -0.5061 -0.3830
vn 0.1060 -0.0293 0.9939
vn 0.8695 -0.4939 0.0000
vn 0.0989 0.0228 0.9948
vn 0.8627 0.5057 0.0000
usemtl None
s off
f 114/137/31 107/138/31 89/139/31 102/140/31
f 112/141/32 106/142/32 86/143/32 98/144/32
f 113/145/32 109/146/32 96/147/32 104/148/32
f 111/149/33 110/150/33 95/151/33 100/152/33
f 105/153/33 111/149/33 100/152/33 85/154/33
f 109/146/32 112/141/32 98/144/32 96/147/32
f 108/155/32 113/145/32 104/148/32 90/156/32
f 110/150/33 114/137/33 102/140/33 95/151/33
f 93/157/33 103/158/33 114/137/33 110/150/33
f 92/159/32 101/160/32 113/145/32 108/155/32
f 94/161/32 99/162/32 112/141/32 109/146/32
f 87/163/33 97/164/33 111/149/33 105/153/33
f 97/164/33 93/157/33 110/150/33 111/149/33
f 101/160/32 94/161/32 109/146/32 113/145/32
f 99/162/32 88/165/32 106/142/32 112/141/32
f 103/158/33 91/166/33 107/138/33 114/137/33
f 135/167/34 136/168/34 118/169/34 117/170/34
f 133/171/35 131/172/35 122/173/35 121/174/35
f 137/175/36 138/176/36 120/177/36 119/178/36
f 130/179/37 128/180/37 116/181/37 115/182/37
f 132/183/38 134/184/38 126/185/38 125/186/38
f 127/187/39 129/188/39 124/189/39 123/190/39
f 117/170/40 118/169/40 129/188/40 127/187/40
f 125/186/41 126/185/41 128/180/41 130/179/41
f 119/178/42 120/177/42 134/184/42 132/183/42
f 123/190/43 124/189/43 131/172/43 133/171/43
f 121/174/44 122/173/44 138/176/44 137/175/44
f 115/191/45 116/192/45 136/168/45 135/167/45
f 119/178/46 137/175/46 150/193/46 141/194/46
f 119/178/47 132/195/47 147/196/47 141/194/47
f 127/187/48 117/170/48 140/197/48 145/198/48
f 119/199/49 121/200/49 142/201/49 141/202/49
f 133/171/50 123/190/50 143/203/50 148/204/50
f 115/205/49 117/206/49 140/207/49 139/208/49
f 123/190/51 127/187/51 145/198/51 143/203/51
f 117/170/52 135/167/52 149/209/52 140/197/52
f 125/210/53 130/211/53 146/212/53 144/213/53
f 125/186/54 132/183/54 147/214/54 144/215/54
f 121/174/55 137/175/55 150/193/55 142/216/55
f 115/217/45 135/218/45 149/219/45 139/220/45
f 121/174/56 133/171/56 148/204/56 142/216/56
f 115/182/57 130/179/57 146/221/57 139/222/57
f 140/197/58 149/209/58 161/223/58 152/224/58
f 141/194/59 147/196/59 159/225/59 153/226/59
f 141/194/60 150/193/60 162/227/60 153/226/60
f 148/204/61 143/203/61 155/228/61 160/229/61
f 141/202/62 142/201/62 154/230/62 153/231/62
f 144/213/63 146/212/63 158/232/63 156/233/63
f 139/208/64 140/207/64 152/234/64 151/235/64
f 143/203/65 145/198/65 157/236/65 155/228/65
f 139/222/66 146/221/66 158/237/66 151/238/66
f 139/220/67 149/219/67 161/239/67 151/240/67
f 144/215/68 147/214/68 159/241/68 156/242/68
f 145/198/69 140/197/69 152/224/69 157/236/69
f 142/216/70 148/204/70 160/229/70 154/243/70
f 142/216/71 150/193/71 162/227/71 154/243/71
f 155/228/72 157/236/72 165/244/72
f 151/238/73 158/237/73 166/245/73 163/246/73
f 151/240/74 161/239/74 167/247/74 163/248/74
f 156/242/75 159/241/75 166/249/75
f 157/236/76 152/224/76 164/250/76 165/251/76
f 154/243/77 160/229/77 165/252/77 164/253/77
f 154/243/78 162/227/78 167/254/78 164/253/78
f 152/224/79 161/223/79 167/255/79 164/250/79
f 153/226/80 159/225/80 166/256/80 163/257/80
f 153/226/81 162/227/81 167/254/81 163/257/81
f 160/229/82 155/228/82 165/252/82
f 153/231/83 154/230/83 164/258/83 163/259/83
f 156/233/84 158/232/84 166/260/84
f 151/235/85 152/234/85 164/258/85 163/259/85
